<svg xmlns="http://www.w3.org/2000/svg" viewBox="0 0 386.86 318.3"><defs><style>.cls-1{fill:#4fd1d9;}.cls-2{fill:#fff;}.cls-3{fill:#ffc843;}.cls-4{fill:#05ce7c;}.cls-5{fill:#05a221;}.cls-6{fill:#da3ab3;}.cls-7{fill:#00b3e3;}.cls-8{fill:#00299f;}.cls-9{fill:#ff6b00;}.cls-10{fill:#055600;}.cls-11{fill:#00ce7c;}.cls-12{fill:#d83bb3;}.cls-13{fill:#00b2e3;}.cls-14{fill:#ff4438;}.cls-15{fill:#d81027;}.cls-16{fill:none;stroke:#000;stroke-miterlimit:10;}.cls-17{fill:#e02e1f;}</style></defs><g id="レイヤー_1" data-name="レイヤー 1"><circle class="cls-1" cx="43.73" cy="303.46" r="40.84" transform="matrix(1, -0.04, 0.04, 1, -13.83, -24.22)"/><path class="cls-2" d="M47.78,308.9H36.7l3-10.89H50.75ZM67.37,298l2.22-8.17H61.28l2.23-8.16H55.2L53,289.84H41.9l2.22-8.16H35.81l-2.22,8.16H25.28L23.05,298h8.31l-3,10.89H20.08l-2.22,8.17h8.31l-2.23,8.17h8.31l2.23-8.17H45.56l-2.23,8.17h8.31l2.22-8.17h8.31l2.23-8.17H56.09l3-10.89Z" transform="translate(-2.88 -26)"/><polyline class="cls-3" points="87.89 241.34 87.89 241.34 87.89 251.87 92.47 251.87 92.47 302.29 103.01 302.29 103.01 277.08 92.47 277.08 92.47 266.54 103.01 266.54 103.01 251.87 87.89 251.87 87.89 241.34"/><path class="cls-4" d="M113.23,267.34H96a9.85,9.85,0,0,1,9.85,9.84v.69h7.34a7.34,7.34,0,0,1,0,14.67h-7.34v10.54h7.34a17.87,17.87,0,0,0,0-35.74" transform="translate(-2.88 -26)"/><path class="cls-5" d="M96.05,267.34H90.78v10.53h15.11v-.68a9.85,9.85,0,0,0-9.84-9.85m9.84,25.2H95.36v10.54h10.53V292.54" transform="translate(-2.88 -26)"/><path class="cls-6" d="M153.35,290.08a16.89,16.89,0,0,0-6.47,1.28v15.73a6.47,6.47,0,0,1,12.94,0v21.34h10.53V307.09a17,17,0,0,0-17-17" transform="translate(-2.88 -26)"/><path class="cls-7" d="M146.88,267.48H136.34v39.61a17,17,0,0,1,10.54-15.73V267.48" transform="translate(-2.88 -26)"/><path class="cls-8" d="M146.88,291.36a17,17,0,0,0-10.54,15.73v21.34h10.54V291.36" transform="translate(-2.88 -26)"/><path class="cls-3" d="M195.6,290a19.17,19.17,0,1,0,19.17,19.17A19.18,19.18,0,0,0,195.6,290m0,27.81a8.64,8.64,0,1,1,8.63-8.64,8.63,8.63,0,0,1-8.63,8.64" transform="translate(-2.88 -26)"/><path class="cls-9" d="M232.71,267.43H222.17V290h10.54V267.43m0,33.11H222.17V318a10.33,10.33,0,0,0,10.31,10.31h5.27V317.81h-5V300.54" transform="translate(-2.88 -26)"/><path class="cls-4" d="M237.75,290h-5v10.53h5V290m-15.58,0h-3.06v10.53h3.06V290" transform="translate(-2.88 -26)"/><polyline class="cls-10" points="229.82 264.01 219.29 264.01 219.29 274.54 229.82 274.54 229.82 264.01"/><path class="cls-3" d="M262.16,290a19.18,19.18,0,1,0,19.17,19.17A19.18,19.18,0,0,0,262.16,290m0,27.81a8.64,8.64,0,1,1,8.64-8.64,8.65,8.65,0,0,1-8.64,8.64" transform="translate(-2.88 -26)"/><path class="cls-11" d="M324.36,275.28H296.87a10.32,10.32,0,0,0-10.32,10.3v32.49a10.32,10.32,0,0,0,10.32,10.31h27.49a10.33,10.33,0,0,0,10.32-10.31V285.58a10.32,10.32,0,0,0-10.32-10.3m-27.27,42.56v-32h27.05v32H297.09" transform="translate(-2.88 -26)"/><path class="cls-12" d="M389.74,280.54h-7.9v10.54h7.9V280.54m-18.44,0H360.06v5.27a18.35,18.35,0,0,1-.77,5.27h12V280.54" transform="translate(-2.88 -26)"/><path class="cls-13" d="M381.84,291.08H371.3v6.54a20.22,20.22,0,0,1-20.22,20.22h-9.46v10.54h9.46a30.76,30.76,0,0,0,30.76-30.76v-6.54" transform="translate(-2.88 -26)"/><polyline class="cls-8" points="378.95 254.54 376.24 254.54 368.42 254.54 368.42 265.08 376.24 265.08 378.95 265.08 378.95 254.54"/><path class="cls-14" d="M360.06,275.28H349.52v5.26h10.54v-5.26m-10.54,10.53h0a7.93,7.93,0,0,1-7.9,7.91v10.53a18.44,18.44,0,0,0,17.67-13.17H347.5a7.88,7.88,0,0,0,2-5.27" transform="translate(-2.88 -26)"/><path class="cls-15" d="M360.06,280.54H349.52v5.27a7.88,7.88,0,0,1-2,5.27h11.79a18.3,18.3,0,0,0,.77-5.27v-5.27" transform="translate(-2.88 -26)"/></g><g id="レイヤー_2" data-name="レイヤー 2"><circle cx="200.76" cy="161.09" r="23.19"/><path d="M120.55,104V247h164.9V104Zm23.83,79.23a7.73,7.73,0,1,1,7.73-7.73A7.73,7.73,0,0,1,144.38,183.23Zm59.26,39.94a36.08,36.08,0,1,1,36.08-36.08A36.07,36.07,0,0,1,203.64,223.17Zm68.28-69.57h-32.4s-9.45-15.75-36.19-15.75S169,153.6,169,153.6H134.08V117.11H271.92Z" transform="translate(-2.88 -26)"/><rect x="236.19" y="102.48" width="25.77" height="16.75"/><path class="cls-16" d="M651.5-136.5" transform="translate(-2.88 -26)"/><path class="cls-17" d="M283.29,63.37l.25-.31-33.09-.76c12.2,13.68,17,34.29,17,34.29s4.72-24,15.3-32.76A5.82,5.82,0,0,1,283.29,63.37Z" transform="translate(-2.88 -26)"/><path class="cls-17" d="M268.49,26A22.11,22.11,0,1,0,289.3,49.37,22.1,22.1,0,0,0,268.49,26Zm-1.73,30.42a8.36,8.36,0,1,1,8.82-7.88A8.37,8.37,0,0,1,266.76,56.46Z" transform="translate(-2.88 -26)"/></g></svg>